<svg xmlns="http://www.w3.org/2000/svg" width="40" height="40" viewBox="0 0 40 40">
    <g fill="none" fill-rule="evenodd">
        <g>
            <g>
                <path d="M0 40L40 40 40 0 0 0z" transform="translate(-1440 -32) translate(1440 32)"/>
                <path stroke="#202429" stroke-width="2" d="M27.068 7.084c-2.793-.398-5.345.647-7.068 2.489-1.723-1.842-4.275-2.887-7.066-2.49-3.637.516-6.496 3.609-6.891 7.28-.28 2.613.8 5.038 3.693 8.323l9.19 9.846c.582.624 1.566.624 2.15 0l9.188-9.846c2.893-3.285 3.973-5.71 3.693-8.322-.395-3.672-3.254-6.763-6.89-7.28" transform="translate(-1440 -32) translate(1440 32)"/>
            </g>
        </g>
    </g>
</svg>
